# xmcd
#
# Track frame offsets:
# 150
# 17853
# 37221
# 54364
# 72572
# 90941
# 108681
# 126678
# 144030
# 161190
# 183301
#
# Disc length: 2653 seconds
#
#
# Revision: 2
# Processed by: cddbd v1.5.1PL2 Copyright (c) Steve Scherf et al.
# Submitted via: FreeRIP 2.945 
#
DISCID=9f0a5b0b
DTITLE=Pastora Soler - Pastora Soler
DYEAR=2005
DGENRE=
TTITLE0=Solo Tú
TTITLE1=Ha Sido Bello
TTITLE2=Flor De Romero
TTITLE3=Que Nos Lleve El Tiempo
TTITLE4=Non Credere
TTITLE5=Nada De Nada
TTITLE6=Encadenados
TTITLE7=Vivir Sin Amor
TTITLE8=Vestida De Besos
TTITLE9=Luna Nueva
TTITLE10=La Flor De Estambul
EXTD=
EXTT0=
EXTT1=
EXTT2=
EXTT3=
EXTT4=
EXTT5=
EXTT6=
EXTT7=
EXTT8=
EXTT9=
EXTT10=
PLAYORDER=
